<?xml version="1.0" encoding="utf-8"?>
<!-- Generator: Adobe Illustrator 15.1.0, SVG Export Plug-In . SVG Version: 6.00 Build 0)  -->
<!DOCTYPE svg PUBLIC "-//W3C//DTD SVG 1.1//EN" "http://www.w3.org/Graphics/SVG/1.1/DTD/svg11.dtd">
<svg version="1.1" id="Capa_1" xmlns="http://www.w3.org/2000/svg" xmlns:xlink="http://www.w3.org/1999/xlink" x="0px" y="0px"
	 width="434.728px" height="151.852px" viewBox="23.456 0 434.728 151.852" enable-background="new 23.456 0 434.728 151.852"
	 xml:space="preserve">
<g>
	<path fill="#403D58" d="M105.987,45.31h22.408l-11.904-15.588l11.904-15.589h-22.408v-1.06C105.987,5.867,100.361,0,93.432,0
		c-6.911,0-12.557,5.861-12.557,13.074v28.202c-1.981-1.328-4.345-2.119-6.89-2.119c-3.766,0-7.127,1.726-9.453,4.42
		c-2.333-2.695-5.688-4.42-9.466-4.42c-3.767,0-7.125,1.726-9.45,4.42c-2.326-2.695-5.688-4.42-9.459-4.42
		c-6.771,0-12.285,5.504-12.632,12.382l-0.07,0.344v0.356v12.793v7.401v26.49v7.745c0,26.61,20.938,45.183,50.942,45.183
		c30.007,0,50.94-18.571,50.94-45.183V75.25c0-2.012-1.563-4.292-2.617-5.189c-2.149-1.866-9.306-3.313-16.782-4.372l0.037-0.168
		V45.316h0.012L105.987,45.31L105.987,45.31z"/>
	<path fill="#FFEEE5" d="M87.123,45.31h12.629v19.585c-2.643-0.305-5.169-0.561-7.331-0.768c-2.021-0.21-3.745-0.167-5.31-0.012
		L87.123,45.31L87.123,45.31z"/>
	<polygon fill="#F2557F" points="115.804,39.074 88.024,39.074 88.024,20.369 115.803,20.369 108.654,29.722 	"/>
	<path fill="#FFEEE5" d="M93.456,6.235c3.483,0,6.31,3.06,6.31,6.838v1.06H87.136v-1.06C87.123,9.295,89.961,6.235,93.456,6.235z"/>
	<path fill="#FFEEE5" d="M73.986,45.398c3.564,0,6.476,3.068,6.476,6.854v12.75l0.256,1.222c-2.234,1.51-3.524,3.556-4.243,5.495
		c-0.888,2.411-0.941,4.933-0.362,7.282c-0.562,0.171-1.146,0.28-1.745,0.28c-3.479,0-6.277-2.935-6.408-6.579l0.024-0.268V51.746
		l-0.184-0.91C68.436,47.742,70.893,45.398,73.986,45.398z"/>
	<path fill="#FFEEE5" d="M55.088,45.398c3.249,0,5.85,2.605,6.296,5.916l-0.101,0.925v21.062l0.143,0.737
		c-0.69,2.978-3.13,5.231-6.146,5.231c-3.45,0-6.199-2.875-6.397-6.461l0.007-0.03v-0.362V52.239v-0.505L48.8,51.296
		C49.258,47.992,51.84,45.398,55.088,45.398z"/>
	<path fill="#FFEEE5" d="M29.715,65.032V52.239c0-3.772,2.901-6.847,6.468-6.847c3.254,0,5.849,2.594,6.296,5.909l-0.091,0.933
		V73.82c-0.637,3.081-3.1,5.444-6.199,5.444c-3.565,0-6.474-3.069-6.474-6.849V65.032z"/>
	<path fill="#FFEEE5" d="M118.629,74.735l0.499,0.514v31.42c0,22.933-18.377,38.947-44.707,38.947
		c-26.322,0-44.706-16.016-44.706-38.947v-7.745V83.628c1.909,1.169,4.099,1.889,6.474,1.889c3.82,0,7.216-1.784,9.548-4.542
		c2.323,2.745,5.724,4.542,9.545,4.542c3.814,0,7.209-1.784,9.539-4.542c2.332,2.745,5.727,4.542,9.547,4.542
		c1.642,0,3.236-0.414,4.744-1.049c1.449,1.627,3.288,2.974,5.541,3.788l19.898,5.505c1.645,0.438,3.38-0.522,3.837-2.191
		c0.449-1.656-0.519-3.374-2.181-3.824l-19.656-5.419c-3.556-1.315-5.448-5.104-4.226-8.464c0.487-1.315,1.583-4.427,9.456-3.517
		C103.089,71.374,116.595,73.38,118.629,74.735z"/>
	<g>
		<g>
			<linearGradient id="SVGID_1_" gradientUnits="userSpaceOnUse" x1="144.8826" y1="81.447" x2="458.1833" y2="81.447">
				<stop  offset="0" style="stop-color:#403D58"/>
				<stop  offset="1" style="stop-color:#F2557F"/>
			</linearGradient>
			<path fill="url(#SVGID_1_)" d="M158.151,73.112c-0.713-0.547-1.739-0.82-3.081-0.82c-1.739,0-3.193,0.82-4.36,2.46
				c-1.168,1.64-1.752,3.876-1.752,6.708v12.97h-4.075V68.987h4.075v5.242h0.1c0.579-1.788,1.466-3.184,2.658-4.187
				c1.192-1.002,2.525-1.503,4-1.503c1.06,0,1.872,0.116,2.436,0.348V73.112z"/>
			<linearGradient id="SVGID_2_" gradientUnits="userSpaceOnUse" x1="144.8826" y1="81.447" x2="458.1833" y2="81.447">
				<stop  offset="0" style="stop-color:#403D58"/>
				<stop  offset="1" style="stop-color:#F2557F"/>
			</linearGradient>
			<path fill="url(#SVGID_2_)" d="M182.512,82.727H164.55c0.065,2.832,0.828,5.019,2.285,6.559c1.458,1.541,3.462,2.312,6.013,2.312
				c2.866,0,5.499-0.944,7.901-2.833v3.826c-2.236,1.624-5.192,2.436-8.87,2.436c-3.595,0-6.419-1.155-8.473-3.467
				c-2.054-2.311-3.081-5.561-3.081-9.752c0-3.958,1.122-7.184,3.367-9.677c2.244-2.493,5.031-3.74,8.36-3.74
				s5.905,1.077,7.728,3.23c1.821,2.153,2.732,5.144,2.732,8.97V82.727z M178.339,79.273c-0.017-2.352-0.584-4.182-1.702-5.49
				s-2.671-1.963-4.658-1.963c-1.922,0-3.553,0.688-4.895,2.062c-1.342,1.375-2.17,3.173-2.484,5.392H178.339z"/>
			<linearGradient id="SVGID_3_" gradientUnits="userSpaceOnUse" x1="144.8826" y1="81.447" x2="458.1833" y2="81.447">
				<stop  offset="0" style="stop-color:#403D58"/>
				<stop  offset="1" style="stop-color:#F2557F"/>
			</linearGradient>
			<path fill="url(#SVGID_3_)" d="M224.291,94.429h-4.074V79.82c0-2.815-0.435-4.854-1.305-6.112
				c-0.869-1.259-2.331-1.888-4.385-1.888c-1.739,0-3.218,0.795-4.436,2.385c-1.217,1.59-1.826,3.495-1.826,5.715v14.51h-4.074
				V79.323c0-5.002-1.93-7.503-5.789-7.503c-1.789,0-3.264,0.749-4.423,2.248c-1.16,1.499-1.739,3.45-1.739,5.852v14.51h-4.075
				V68.987h4.075v4.025h0.1c1.805-3.081,4.438-4.622,7.9-4.622c1.739,0,3.255,0.485,4.547,1.454s2.178,2.24,2.659,3.813
				c1.888-3.511,4.704-5.267,8.447-5.267c5.599,0,8.397,3.454,8.397,10.361V94.429z"/>
			<linearGradient id="SVGID_4_" gradientUnits="userSpaceOnUse" x1="144.8826" y1="81.447" x2="458.1833" y2="81.447">
				<stop  offset="0" style="stop-color:#403D58"/>
				<stop  offset="1" style="stop-color:#F2557F"/>
			</linearGradient>
			<path fill="url(#SVGID_4_)" d="M251.932,82.727h-17.963c0.065,2.832,0.828,5.019,2.285,6.559
				c1.458,1.541,3.462,2.312,6.013,2.312c2.866,0,5.499-0.944,7.901-2.833v3.826c-2.236,1.624-5.192,2.436-8.87,2.436
				c-3.595,0-6.419-1.155-8.473-3.467c-2.054-2.311-3.081-5.561-3.081-9.752c0-3.958,1.122-7.184,3.367-9.677
				c2.244-2.493,5.031-3.74,8.36-3.74s5.905,1.077,7.728,3.23c1.821,2.153,2.732,5.144,2.732,8.97V82.727z M247.759,79.273
				c-0.017-2.352-0.584-4.182-1.702-5.49s-2.671-1.963-4.658-1.963c-1.922,0-3.553,0.688-4.895,2.062
				c-1.342,1.375-2.17,3.173-2.484,5.392H247.759z"/>
			<linearGradient id="SVGID_5_" gradientUnits="userSpaceOnUse" x1="144.8826" y1="81.447" x2="458.1833" y2="81.447">
				<stop  offset="0" style="stop-color:#403D58"/>
				<stop  offset="1" style="stop-color:#F2557F"/>
			</linearGradient>
			<path fill="url(#SVGID_5_)" d="M293.712,94.429h-4.074V79.82c0-2.815-0.435-4.854-1.305-6.112
				c-0.869-1.259-2.331-1.888-4.385-1.888c-1.739,0-3.218,0.795-4.436,2.385c-1.217,1.59-1.826,3.495-1.826,5.715v14.51h-4.074
				V79.323c0-5.002-1.93-7.503-5.789-7.503c-1.789,0-3.264,0.749-4.423,2.248c-1.16,1.499-1.739,3.45-1.739,5.852v14.51h-4.075
				V68.987h4.075v4.025h0.1c1.805-3.081,4.438-4.622,7.9-4.622c1.739,0,3.255,0.485,4.547,1.454s2.178,2.24,2.659,3.813
				c1.888-3.511,4.704-5.267,8.447-5.267c5.599,0,8.397,3.454,8.397,10.361V94.429z"/>
			<linearGradient id="SVGID_6_" gradientUnits="userSpaceOnUse" x1="144.8826" y1="81.447" x2="458.1833" y2="81.447">
				<stop  offset="0" style="stop-color:#403D58"/>
				<stop  offset="1" style="stop-color:#F2557F"/>
			</linearGradient>
			<path fill="url(#SVGID_6_)" d="M305.08,90.753h-0.1v3.677h-4.075V56.763h4.075V73.46h0.1c2.004-3.379,4.936-5.069,8.795-5.069
				c3.264,0,5.818,1.139,7.665,3.417s2.771,5.329,2.771,9.155c0,4.258-1.035,7.665-3.105,10.225
				c-2.071,2.559-4.903,3.839-8.498,3.839C309.344,95.026,306.802,93.601,305.08,90.753z M304.98,80.491v3.553
				c0,2.104,0.684,3.889,2.05,5.354s3.102,2.199,5.205,2.199c2.468,0,4.401-0.944,5.802-2.833c1.399-1.888,2.1-4.514,2.1-7.876
				c0-2.832-0.655-5.052-1.963-6.659c-1.309-1.606-3.081-2.409-5.317-2.409c-2.369,0-4.273,0.824-5.715,2.472
				C305.701,75.94,304.98,78.007,304.98,80.491z"/>
			<linearGradient id="SVGID_7_" gradientUnits="userSpaceOnUse" x1="144.8826" y1="81.447" x2="458.1833" y2="81.447">
				<stop  offset="0" style="stop-color:#403D58"/>
				<stop  offset="1" style="stop-color:#F2557F"/>
			</linearGradient>
			<path fill="url(#SVGID_7_)" d="M350.759,82.727h-17.963c0.065,2.832,0.828,5.019,2.285,6.559
				c1.458,1.541,3.462,2.312,6.013,2.312c2.866,0,5.499-0.944,7.901-2.833v3.826c-2.236,1.624-5.192,2.436-8.87,2.436
				c-3.595,0-6.419-1.155-8.473-3.467c-2.054-2.311-3.081-5.561-3.081-9.752c0-3.958,1.122-7.184,3.367-9.677
				c2.244-2.493,5.031-3.74,8.36-3.74s5.905,1.077,7.728,3.23c1.821,2.153,2.732,5.144,2.732,8.97V82.727z M346.585,79.273
				c-0.017-2.352-0.584-4.182-1.702-5.49s-2.671-1.963-4.658-1.963c-1.922,0-3.553,0.688-4.895,2.062
				c-1.342,1.375-2.17,3.173-2.484,5.392H346.585z"/>
			<linearGradient id="SVGID_8_" gradientUnits="userSpaceOnUse" x1="144.8826" y1="81.447" x2="458.1833" y2="81.447">
				<stop  offset="0" style="stop-color:#403D58"/>
				<stop  offset="1" style="stop-color:#F2557F"/>
			</linearGradient>
			<path fill="url(#SVGID_8_)" d="M369.68,73.112c-0.713-0.547-1.739-0.82-3.081-0.82c-1.739,0-3.193,0.82-4.36,2.46
				c-1.168,1.64-1.752,3.876-1.752,6.708v12.97h-4.075V68.987h4.075v5.242h0.1c0.579-1.788,1.466-3.184,2.658-4.187
				c1.192-1.002,2.525-1.503,4-1.503c1.06,0,1.872,0.116,2.436,0.348V73.112z"/>
			<linearGradient id="SVGID_9_" gradientUnits="userSpaceOnUse" x1="144.8826" y1="81.447" x2="458.1833" y2="81.447">
				<stop  offset="0" style="stop-color:#403D58"/>
				<stop  offset="1" style="stop-color:#F2557F"/>
			</linearGradient>
			<path fill="url(#SVGID_9_)" d="M372.053,93.51v-4.373c2.22,1.64,4.662,2.46,7.329,2.46c3.578,0,5.367-1.193,5.367-3.578
				c0-0.679-0.153-1.255-0.46-1.727c-0.307-0.473-0.721-0.891-1.242-1.255s-1.135-0.691-1.839-0.981s-1.462-0.592-2.273-0.907
				c-1.126-0.447-2.115-0.898-2.969-1.354c-0.854-0.456-1.565-0.97-2.137-1.541s-1.002-1.221-1.292-1.95
				c-0.29-0.729-0.435-1.582-0.435-2.56c0-1.192,0.273-2.248,0.819-3.167c0.547-0.92,1.275-1.69,2.187-2.312
				s1.951-1.089,3.118-1.403c1.168-0.314,2.373-0.472,3.615-0.472c2.203,0,4.175,0.381,5.913,1.143v4.124
				c-1.871-1.226-4.024-1.838-6.459-1.838c-0.763,0-1.45,0.087-2.063,0.261c-0.613,0.174-1.14,0.418-1.578,0.732
				c-0.438,0.315-0.778,0.692-1.019,1.131s-0.36,0.924-0.36,1.453c0,0.663,0.12,1.218,0.36,1.665s0.592,0.845,1.056,1.192
				s1.027,0.663,1.689,0.944c0.663,0.282,1.417,0.588,2.262,0.919c1.126,0.432,2.137,0.874,3.031,1.329
				c0.895,0.456,1.656,0.97,2.285,1.541c0.63,0.571,1.114,1.229,1.454,1.976c0.339,0.745,0.509,1.631,0.509,2.658
				c0,1.259-0.277,2.352-0.832,3.279c-0.556,0.928-1.296,1.698-2.224,2.311c-0.928,0.613-1.996,1.068-3.205,1.367
				c-1.209,0.298-2.477,0.447-3.802,0.447C376.244,95.026,373.974,94.52,372.053,93.51z"/>
			<linearGradient id="SVGID_10_" gradientUnits="userSpaceOnUse" x1="144.8826" y1="81.447" x2="458.1833" y2="81.447">
				<stop  offset="0" style="stop-color:#403D58"/>
				<stop  offset="1" style="stop-color:#F2557F"/>
			</linearGradient>
			<path fill="url(#SVGID_10_)" d="M415.795,94.429h-4.074V79.77c0-5.3-1.972-7.95-5.913-7.95c-1.988,0-3.661,0.766-5.02,2.298
				s-2.037,3.499-2.037,5.901v14.41h-4.075V56.763h4.075v16.448h0.1c1.954-3.213,4.736-4.82,8.348-4.82
				c5.731,0,8.597,3.454,8.597,10.361V94.429z"/>
			<linearGradient id="SVGID_11_" gradientUnits="userSpaceOnUse" x1="144.8826" y1="81.447" x2="458.1833" y2="81.447">
				<stop  offset="0" style="stop-color:#403D58"/>
				<stop  offset="1" style="stop-color:#F2557F"/>
			</linearGradient>
			<path fill="url(#SVGID_11_)" d="M425.052,62.527c-0.729,0-1.351-0.249-1.864-0.745c-0.514-0.497-0.77-1.126-0.77-1.888
				s0.256-1.396,0.77-1.901c0.514-0.505,1.135-0.758,1.864-0.758c0.745,0,1.379,0.253,1.9,0.758
				c0.521,0.505,0.782,1.139,0.782,1.901c0,0.729-0.261,1.35-0.782,1.863C426.43,62.271,425.797,62.527,425.052,62.527z
				 M427.039,94.429h-4.075V68.987h4.075V94.429z"/>
			<linearGradient id="SVGID_12_" gradientUnits="userSpaceOnUse" x1="144.8826" y1="81.447" x2="458.1833" y2="81.447">
				<stop  offset="0" style="stop-color:#403D58"/>
				<stop  offset="1" style="stop-color:#F2557F"/>
			</linearGradient>
			<path fill="url(#SVGID_12_)" d="M438.953,90.753h-0.1v15.379h-4.075V68.987h4.075v4.473h0.1c2.004-3.379,4.936-5.069,8.795-5.069
				c3.28,0,5.839,1.139,7.678,3.417s2.758,5.329,2.758,9.155c0,4.258-1.035,7.665-3.105,10.225
				c-2.071,2.559-4.903,3.839-8.498,3.839C443.284,95.026,440.742,93.601,438.953,90.753z M438.853,80.491v3.553
				c0,2.104,0.684,3.889,2.05,5.354s3.102,2.199,5.205,2.199c2.468,0,4.401-0.944,5.802-2.833c1.399-1.888,2.1-4.514,2.1-7.876
				c0-2.832-0.655-5.052-1.963-6.659c-1.309-1.606-3.081-2.409-5.317-2.409c-2.369,0-4.273,0.824-5.715,2.472
				C439.574,75.94,438.853,78.007,438.853,80.491z"/>
		</g>
	</g>
</g>
</svg>
